<?xml version="1.0" encoding="UTF-8" standalone="no"?>
<!-- Created with Inkscape (http://www.inkscape.org/) -->

<svg
   xmlns:dc="http://purl.org/dc/elements/1.1/"
   xmlns:cc="http://creativecommons.org/ns#"
   xmlns:rdf="http://www.w3.org/1999/02/22-rdf-syntax-ns#"
   xmlns:svg="http://www.w3.org/2000/svg"
   xmlns="http://www.w3.org/2000/svg"
   xmlns:sodipodi="http://sodipodi.sourceforge.net/DTD/sodipodi-0.dtd"
   xmlns:inkscape="http://www.inkscape.org/namespaces/inkscape"
   width="9075.8184"
   height="2150"
   viewBox="0 0 9075.8184 2150"
   id="svg2"
   version="1.1"
   inkscape:version="0.91 r13725"
   sodipodi:docname="application-text.svg"
   inkscape:export-filename="D:\Documents\Development\dotStart\chaosmgr\ui\src\main\resources\icon\application16.png"
   inkscape:export-xdpi="0.67000002"
   inkscape:export-ydpi="0.67000002">
  <defs
     id="defs4" />
  <sodipodi:namedview
     id="base"
     pagecolor="#ffffff"
     bordercolor="#666666"
     borderopacity="1.0"
     inkscape:pageopacity="0.0"
     inkscape:pageshadow="2"
     inkscape:zoom="0.061871843"
     inkscape:cx="5734.0522"
     inkscape:cy="2184.4197"
     inkscape:document-units="px"
     inkscape:current-layer="layer1"
     showgrid="false"
     fit-margin-top="0"
     fit-margin-left="325"
     fit-margin-right="325"
     fit-margin-bottom="0"
     units="px"
     inkscape:window-width="1920"
     inkscape:window-height="1017"
     inkscape:window-x="-8"
     inkscape:window-y="-8"
     inkscape:window-maximized="1" />
  <metadata
     id="metadata7">
    <rdf:RDF>
      <cc:Work
         rdf:about="">
        <dc:format>image/svg+xml</dc:format>
        <dc:type
           rdf:resource="http://purl.org/dc/dcmitype/StillImage" />
        <dc:title></dc:title>
      </cc:Work>
    </rdf:RDF>
  </metadata>
  <g
     inkscape:label="Layer 1"
     inkscape:groupmode="layer"
     id="layer1"
     transform="translate(250,437.63865)">
    <g
       id="g4243">
      <path
         inkscape:connector-curvature="0"
         id="rect4154"
         d="m 825,-437.63865 -135,300 -10,0 20,90.000003 0,501.005857 -125,0 0,-201.00586 20,-90 -10,0 -135,-300 -135,300 -10,0 20,90 0,300 0,493.76755 126.26953,-5.8066 126.26953,8 126.26758,4 126.26953,16 126.26953,-26 126.2695,10.1777 126.2676,-8 116.1172,1.6992 0,-493.83785 0,-400 20,-89.999997 -10,0 -135,-300.000003 -135,300.000003 -10,0 20,89.999997 0,400 -125,0 0,-599.999997 20,-90.000003 -10,0 -135,-300 z m -50,425.000003 100,0 0,149.999997 -100,0 0,-149.999997 z m -375,299.999997 100,0 0,150 -100,0 0,-150 z m 800,80 100,0 0,150 -100,0 0,-150 z m -800,240 100,0 0,150 -100,0 0,-150 z m 660,60 100,0 0,150 -100,0 0,-150 z m 140,100 100,0 0,150 -100,0 0,-150 z m -760,60 100,0 0,150 -100,0 0,-150 z m 1135,204.99995 -215,20 -24.4688,0 0,0.053 -3.6035,-0.053 -6.9277,0 0,-0.1015 -116.1172,-1.6993 -126.2676,8 -126.2695,-10 -126.26953,25.8223 -126.26953,-16 -126.26758,-4 -126.26953,-8 -126.26953,5.8067 0,0.1718 -3.72461,0 -31.27539,0 -215,18 187.5,147 127.5,5 23.75,132.5 211.875,56.25 11.875,136.25 187.5,165 73.75,-142.5 113.75,-22.5 123.75,-222.5 163.75,17.5 87.5,-205 187.5,-105 z"
         style="opacity:1;fill:#be3232;fill-opacity:1;stroke:none" />
      <text
         sodipodi:linespacing="125%"
         id="text4239"
         y="957.17804"
         x="2148.8547"
         style="font-style:normal;font-variant:normal;font-weight:300;font-stretch:normal;font-size:56.23150635px;line-height:125%;font-family:Roboto;-inkscape-font-specification:'Roboto Light';letter-spacing:0px;word-spacing:0px;fill:#be3232;fill-opacity:1;stroke:none;stroke-width:1px;stroke-linecap:butt;stroke-linejoin:miter;stroke-opacity:1"
         xml:space="preserve"><tspan
           style="font-style:normal;font-variant:normal;font-weight:300;font-stretch:normal;font-size:899.70410156px;font-family:Roboto;-inkscape-font-specification:'Roboto Light';fill:#be3232;fill-opacity:1"
           y="957.17804"
           x="2148.8547"
           id="tspan4241"
           sodipodi:role="line">PANDEMONIUM</tspan></text>
    </g>
  </g>
</svg>
