<?xml version="1.0" encoding="UTF-8" standalone="no"?>
<!-- Created with Inkscape (http://www.inkscape.org/) -->

<svg
   xmlns:dc="http://purl.org/dc/elements/1.1/"
   xmlns:cc="http://creativecommons.org/ns#"
   xmlns:rdf="http://www.w3.org/1999/02/22-rdf-syntax-ns#"
   xmlns:svg="http://www.w3.org/2000/svg"
   xmlns="http://www.w3.org/2000/svg"
   xmlns:sodipodi="http://sodipodi.sourceforge.net/DTD/sodipodi-0.dtd"
   xmlns:inkscape="http://www.inkscape.org/namespaces/inkscape"
   width="2150"
   height="2150"
   viewBox="0 0 2150 2150"
   id="svg2"
   version="1.1"
   inkscape:version="0.91 r13725"
   sodipodi:docname="application.svg"
   inkscape:export-filename="D:\Documents\Development\dotStart\chaosmgr\ui\src\main\resources\icon\application16.png"
   inkscape:export-xdpi="0.67000002"
   inkscape:export-ydpi="0.67000002">
  <defs
     id="defs4" />
  <sodipodi:namedview
     id="base"
     pagecolor="#ffffff"
     bordercolor="#666666"
     borderopacity="1.0"
     inkscape:pageopacity="0.0"
     inkscape:pageshadow="2"
     inkscape:zoom="0.175"
     inkscape:cx="1172.3568"
     inkscape:cy="1362.7427"
     inkscape:document-units="px"
     inkscape:current-layer="layer1"
     showgrid="false"
     fit-margin-top="0"
     fit-margin-left="0"
     fit-margin-right="0"
     fit-margin-bottom="0"
     units="px"
     inkscape:window-width="1920"
     inkscape:window-height="1017"
     inkscape:window-x="-8"
     inkscape:window-y="-8"
     inkscape:window-maximized="1" />
  <metadata
     id="metadata7">
    <rdf:RDF>
      <cc:Work
         rdf:about="">
        <dc:format>image/svg+xml</dc:format>
        <dc:type
           rdf:resource="http://purl.org/dc/dcmitype/StillImage" />
        <dc:title></dc:title>
      </cc:Work>
    </rdf:RDF>
  </metadata>
  <g
     inkscape:label="Layer 1"
     inkscape:groupmode="layer"
     id="layer1"
     transform="translate(250,437.63867)">
    <path
       style="opacity:1;fill:#be3232;fill-opacity:1;stroke:none"
       d="m 825,-437.63866 -135,300 -10,0 20,90.000003 0,501.005857 -125,0 0,-201.00586 20,-90 -10,0 -135,-300 -135,300 -10,0 20,90 0,300 0,493.76756 126.26953,-5.8066 126.26953,8 126.26758,4 126.26953,16 126.26953,-26 126.2695,10.1777 126.2676,-8 116.1172,1.6992 0,-493.83786 0,-400 20,-89.999997 -10,0 -135,-300.000003 -135,300.000003 -10,0 20,89.999997 0,400 -125,0 0,-599.999997 20,-90.000003 -10,0 -135,-300 z m -50,425.000003 100,0 0,149.999997 -100,0 0,-149.999997 z m -375,299.999997 100,0 0,150 -100,0 0,-150 z m 800,80 100,0 0,150 -100,0 0,-150 z m -800,240 100,0 0,150 -100,0 0,-150 z m 660,60 100,0 0,150 -100,0 0,-150 z m 140,100 100,0 0,150 -100,0 0,-150 z m -760,60 100,0 0,150 -100,0 0,-150 z m 1135,204.99996 -215,20 -24.4688,0 0,0.053 -3.6035,-0.053 -6.9277,0 0,-0.1015 -116.1172,-1.6993 -126.2676,8 -126.2695,-10 -126.26953,25.8223 -126.26953,-16 -126.26758,-4 -126.26953,-8 -126.26953,5.8067 0,0.1718 -3.72461,0 -31.27539,0 -215,18 187.5,147 127.5,5 23.75,132.5 211.875,56.25 11.875,136.25 187.5,165 73.75,-142.5 113.75,-22.5 123.75,-222.5 163.75,17.5 87.5,-205 187.5,-105 z"
       id="rect4154"
       inkscape:connector-curvature="0" />
  </g>
</svg>
